<?xml version="1.0" standalone="no"?>
<!DOCTYPE svg PUBLIC "-//W3C//DTD SVG 20010904//EN"
 "http://www.w3.org/TR/2001/REC-SVG-20010904/DTD/svg10.dtd">
<svg version="1.0" xmlns="http://www.w3.org/2000/svg"
 width="500.000000pt" height="500.000000pt" viewBox="0 0 500.000000 500.000000"
 preserveAspectRatio="xMidYMid meet">
<metadata>
Created by potrace 1.14, written by Peter Selinger 2001-2017
</metadata>
<g transform="translate(0.000000,500.000000) scale(0.100000,-0.100000)"
fill="#000000" stroke="none">
<path d="M4615 4490 c3 -5 8 -10 11 -10 2 0 4 5 4 10 0 6 -5 10 -11 10 -5 0
-7 -4 -4 -10z"/>
<path d="M4690 4490 c0 -5 5 -10 10 -10 6 0 10 5 10 10 0 6 -4 10 -10 10 -5 0
-10 -4 -10 -10z"/>
<path d="M4460 4472 c0 -5 7 -9 15 -9 8 0 12 4 9 9 -3 4 -9 8 -15 8 -5 0 -9
-4 -9 -8z"/>
<path d="M4390 4449 c0 -5 5 -7 10 -4 6 3 10 8 10 11 0 2 -4 4 -10 4 -5 0 -10
-5 -10 -11z"/>
<path d="M4835 4440 c3 -5 8 -10 11 -10 2 0 4 5 4 10 0 6 -5 10 -11 10 -5 0
-7 -4 -4 -10z"/>
<path d="M4318 4433 c7 -3 16 -2 19 1 4 3 -2 6 -13 5 -11 0 -14 -3 -6 -6z"/>
<path d="M4245 4410 c-3 -5 -1 -10 4 -10 6 0 11 5 11 10 0 6 -2 10 -4 10 -3 0
-8 -4 -11 -10z"/>
<path d="M4895 4400 c3 -5 8 -10 11 -10 2 0 4 5 4 10 0 6 -5 10 -11 10 -5 0
-7 -4 -4 -10z"/>
<path d="M2249 4385 c-2 -1 -26 -6 -54 -9 -27 -4 -63 -9 -80 -12 -62 -11 -293
-76 -330 -94 -11 -5 -58 -27 -105 -48 -343 -158 -649 -455 -825 -801 -58 -116
-128 -318 -123 -354 2 -13 17 18 37 80 93 286 282 578 500 773 232 207 573
375 846 416 17 3 36 7 43 9 30 10 177 19 302 18 115 0 221 -12 365 -38 65 -12
185 -51 283 -91 56 -24 102 -41 102 -38 0 3 -42 24 -92 48 -123 57 -253 99
-350 112 -24 4 -76 12 -117 19 -64 11 -393 20 -402 10z"/>
<path d="M4178 4383 c7 -3 16 -2 19 1 4 3 -2 6 -13 5 -11 0 -14 -3 -6 -6z"/>
<path d="M4420 4332 c-49 -6 -216 -42 -280 -61 -79 -22 -223 -81 -216 -88 3
-3 39 9 80 26 82 34 260 82 374 101 142 23 224 -13 225 -101 2 -95 -116 -272
-299 -450 -76 -74 -239 -200 -391 -303 -24 -16 -43 -31 -43 -33 0 -5 7 -1 90
54 246 162 354 254 498 426 138 164 192 306 142 370 -38 48 -102 69 -180 59z"/>
<path d="M4035 4320 c-3 -5 -2 -10 4 -10 5 0 13 5 16 10 3 6 2 10 -4 10 -5 0
-13 -4 -16 -10z"/>
<path d="M3970 4290 c0 -5 5 -10 11 -10 5 0 7 5 4 10 -3 6 -8 10 -11 10 -2 0
-4 -4 -4 -10z"/>
<path d="M2375 4270 c-3 -5 1 -10 10 -10 9 0 13 5 10 10 -3 6 -8 10 -10 10 -2
0 -7 -4 -10 -10z"/>
<path d="M2450 4269 c0 -5 5 -7 10 -4 6 3 10 8 10 11 0 2 -4 4 -10 4 -5 0 -10
-5 -10 -11z"/>
<path d="M4965 4270 c3 -5 8 -10 11 -10 2 0 4 5 4 10 0 6 -5 10 -11 10 -5 0
-7 -4 -4 -10z"/>
<path d="M2305 4260 c-3 -5 -1 -10 4 -10 6 0 11 5 11 10 0 6 -2 10 -4 10 -3 0
-8 -4 -11 -10z"/>
<path d="M2520 4250 c0 -5 5 -10 11 -10 5 0 7 5 4 10 -3 6 -8 10 -11 10 -2 0
-4 -4 -4 -10z"/>
<path d="M3905 4250 c3 -5 8 -10 11 -10 2 0 4 5 4 10 0 6 -5 10 -11 10 -5 0
-7 -4 -4 -10z"/>
<path d="M2230 4240 c0 -5 5 -10 11 -10 5 0 7 5 4 10 -3 6 -8 10 -11 10 -2 0
-4 -4 -4 -10z"/>
<path d="M2155 4220 c-3 -5 1 -10 10 -10 9 0 13 5 10 10 -3 6 -8 10 -10 10 -2
0 -7 -4 -10 -10z"/>
<path d="M3838 4213 c7 -3 16 -2 19 1 4 3 -2 6 -13 5 -11 0 -14 -3 -6 -6z"/>
<path d="M2015 4170 c3 -5 8 -10 11 -10 2 0 4 5 4 10 0 6 -5 10 -11 10 -5 0
-7 -4 -4 -10z"/>
<path d="M3770 4169 c0 -5 5 -7 10 -4 6 3 10 8 10 11 0 2 -4 4 -10 4 -5 0 -10
-5 -10 -11z"/>
<path d="M1945 4150 c-3 -5 -1 -10 4 -10 6 0 11 5 11 10 0 6 -2 10 -4 10 -3 0
-8 -4 -11 -10z"/>
<path d="M3828 4144 c-31 -16 -35 -29 -14 -37 18 -7 79 30 71 43 -8 14 -25 12
-57 -6z m22 -14 c-8 -5 -19 -10 -25 -10 -5 0 -3 5 5 10 8 5 20 10 25 10 6 0 3
-5 -5 -10z"/>
<path d="M3705 4140 c-3 -5 -1 -10 4 -10 6 0 11 5 11 10 0 6 -2 10 -4 10 -3 0
-8 -4 -11 -10z"/>
<path d="M4941 4094 c-71 -189 -167 -330 -351 -515 -80 -80 -193 -185 -252
-234 -108 -88 -142 -121 -70 -68 147 109 359 303 453 416 101 120 185 262 225
381 29 84 25 100 -5 20z"/>
<path d="M3571 4092 c-29 -30 -54 -52 -56 -50 -3 2 -5 18 -7 36 -3 45 -28 42
-28 -4 l0 -36 -40 36 c-72 65 -85 40 -14 -26 l46 -43 -28 -5 c-38 -7 -36 -24
3 -28 l32 -3 -19 -37 c-24 -43 -25 -52 -6 -52 7 0 19 14 27 31 l13 32 12 -44
c7 -23 11 -46 8 -51 -3 -4 1 -5 9 -3 10 4 12 20 9 57 l-4 52 72 -73 c108 -111
108 -76 0 42 l-52 57 35 0 c36 0 57 14 34 23 -6 2 -26 4 -44 3 l-32 -1 17 27
c9 14 30 40 45 58 50 55 22 57 -32 2z"/>
<path d="M2540 4104 c0 -8 5 -12 10 -9 6 4 8 11 5 16 -9 14 -15 11 -15 -7z"/>
<path d="M3713 4083 c-3 -10 -8 -21 -10 -25 -2 -5 0 -8 6 -8 15 0 42 31 36 41
-10 15 -25 10 -32 -8z"/>
<path d="M1810 4079 c0 -5 5 -7 10 -4 6 3 10 8 10 11 0 2 -4 4 -10 4 -5 0 -10
-5 -10 -11z"/>
<path d="M1740 4050 c0 -5 5 -10 11 -10 5 0 7 5 4 10 -3 6 -8 10 -11 10 -2 0
-4 -4 -4 -10z"/>
<path d="M2520 4034 c0 -8 5 -12 10 -9 6 4 8 11 5 16 -9 14 -15 11 -15 -7z"/>
<path d="M1675 4010 c-3 -5 -1 -10 4 -10 6 0 11 5 11 10 0 6 -2 10 -4 10 -3 0
-8 -4 -11 -10z"/>
<path d="M1610 3969 c0 -5 5 -7 10 -4 6 3 10 8 10 11 0 2 -4 4 -10 4 -5 0 -10
-5 -10 -11z"/>
<path d="M2490 3964 c0 -8 5 -12 10 -9 6 4 8 11 5 16 -9 14 -15 11 -15 -7z"/>
<path d="M1550 3930 c0 -5 5 -10 11 -10 5 0 7 5 4 10 -3 6 -8 10 -11 10 -2 0
-4 -4 -4 -10z"/>
<path d="M2455 3900 c-3 -5 -1 -10 4 -10 6 0 11 5 11 10 0 6 -2 10 -4 10 -3 0
-8 -4 -11 -10z"/>
<path d="M1490 3879 c0 -5 5 -7 10 -4 6 3 10 8 10 11 0 2 -4 4 -10 4 -5 0 -10
-5 -10 -11z"/>
<path d="M1430 3829 c0 -5 5 -7 10 -4 6 3 10 8 10 11 0 2 -4 4 -10 4 -5 0 -10
-5 -10 -11z"/>
<path d="M2415 3830 c-3 -5 -2 -10 4 -10 5 0 13 5 16 10 3 6 2 10 -4 10 -5 0
-13 -4 -16 -10z"/>
<path d="M1370 3779 c0 -5 5 -7 10 -4 6 3 10 8 10 11 0 2 -4 4 -10 4 -5 0 -10
-5 -10 -11z"/>
<path d="M2375 3770 c-3 -5 -1 -10 4 -10 6 0 11 5 11 10 0 6 -2 10 -4 10 -3 0
-8 -4 -11 -10z"/>
<path d="M1320 3729 c0 -5 5 -7 10 -4 6 3 10 8 10 11 0 2 -4 4 -10 4 -5 0 -10
-5 -10 -11z"/>
<path d="M2335 3710 c-3 -5 -1 -10 4 -10 6 0 11 5 11 10 0 6 -2 10 -4 10 -3 0
-8 -4 -11 -10z"/>
<path d="M1270 3669 c0 -5 5 -7 10 -4 6 3 10 8 10 11 0 2 -4 4 -10 4 -5 0 -10
-5 -10 -11z"/>
<path d="M2715 3660 c3 -5 10 -10 16 -10 5 0 9 5 9 10 0 6 -7 10 -16 10 -8 0
-12 -4 -9 -10z"/>
<path d="M2290 3644 c0 -8 5 -12 10 -9 6 4 8 11 5 16 -9 14 -15 11 -15 -7z"/>
<path d="M3110 3639 c0 -5 5 -7 10 -4 6 3 10 8 10 11 0 2 -4 4 -10 4 -5 0 -10
-5 -10 -11z"/>
<path d="M1220 3619 c0 -5 5 -7 10 -4 6 3 10 8 10 11 0 2 -4 4 -10 4 -5 0 -10
-5 -10 -11z"/>
<path d="M2770 3614 c0 -8 5 -12 10 -9 6 4 8 11 5 16 -9 14 -15 11 -15 -7z"/>
<path d="M2585 3600 c-3 -5 1 -10 10 -10 9 0 13 5 10 10 -3 6 -8 10 -10 10 -2
0 -7 -4 -10 -10z"/>
<path d="M2245 3590 c-3 -5 -1 -10 4 -10 6 0 11 5 11 10 0 6 -2 10 -4 10 -3 0
-8 -4 -11 -10z"/>
<path d="M3060 3589 c0 -5 5 -7 10 -4 6 3 10 8 10 11 0 2 -4 4 -10 4 -5 0 -10
-5 -10 -11z"/>
<path d="M1175 3560 c-3 -5 -1 -10 4 -10 6 0 11 5 11 10 0 6 -2 10 -4 10 -3 0
-8 -4 -11 -10z"/>
<path d="M2520 3550 c0 -5 5 -10 10 -10 6 0 10 5 10 10 0 6 -4 10 -10 10 -5 0
-10 -4 -10 -10z"/>
<path d="M2756 3543 c-6 -14 -5 -15 5 -6 7 7 10 15 7 18 -3 3 -9 -2 -12 -12z"/>
<path d="M2195 3530 c-3 -5 -1 -10 4 -10 6 0 11 5 11 10 0 6 -2 10 -4 10 -3 0
-8 -4 -11 -10z"/>
<path d="M3010 3529 c0 -5 5 -7 10 -4 6 3 10 8 10 11 0 2 -4 4 -10 4 -5 0 -10
-5 -10 -11z"/>
<path d="M4075 3512 c-22 -16 -69 -49 -105 -75 -83 -59 -280 -196 -390 -272
-98 -67 -108 -75 -94 -75 21 0 634 432 634 446 0 6 -3 5 -45 -24z"/>
<path d="M1135 3500 c-3 -5 -1 -10 4 -10 6 0 11 5 11 10 0 6 -2 10 -4 10 -3 0
-8 -4 -11 -10z"/>
<path d="M2470 3499 c0 -5 5 -7 10 -4 6 3 10 8 10 11 0 2 -4 4 -10 4 -5 0 -10
-5 -10 -11z"/>
<path d="M2716 3483 c-6 -14 -5 -15 5 -6 7 7 10 15 7 18 -3 3 -9 -2 -12 -12z"/>
<path d="M2960 3479 c0 -5 5 -7 10 -4 6 3 10 8 10 11 0 2 -4 4 -10 4 -5 0 -10
-5 -10 -11z"/>
<path d="M2150 3470 c0 -5 5 -10 11 -10 5 0 7 5 4 10 -3 6 -8 10 -11 10 -2 0
-4 -4 -4 -10z"/>
<path d="M2415 3450 c-3 -5 -1 -10 4 -10 6 0 11 5 11 10 0 6 -2 10 -4 10 -3 0
-8 -4 -11 -10z"/>
<path d="M1090 3429 c0 -5 5 -7 10 -4 6 3 10 8 10 11 0 2 -4 4 -10 4 -5 0 -10
-5 -10 -11z"/>
<path d="M2905 3430 c-3 -5 -1 -10 4 -10 6 0 11 5 11 10 0 6 -2 10 -4 10 -3 0
-8 -4 -11 -10z"/>
<path d="M2665 3420 c-3 -5 -2 -10 4 -10 5 0 13 5 16 10 3 6 2 10 -4 10 -5 0
-13 -4 -16 -10z"/>
<path d="M2110 3410 c0 -5 5 -10 11 -10 5 0 7 5 4 10 -3 6 -8 10 -11 10 -2 0
-4 -4 -4 -10z"/>
<path d="M3833 3408 c-12 -6 -24 -17 -27 -24 -4 -12 0 -11 24 1 17 9 30 20 30
25 0 12 1 12 -27 -2z"/>
<path d="M2365 3400 c-3 -5 -1 -10 4 -10 6 0 11 5 11 10 0 6 -2 10 -4 10 -3 0
-8 -4 -11 -10z"/>
<path d="M1672 3383 c-20 -39 14 -269 48 -334 9 -16 7 -21 -13 -28 -48 -19
-83 -110 -58 -150 6 -9 5 -23 -1 -37 -8 -17 -8 -27 2 -39 10 -12 8 -16 -15
-25 -14 -5 -29 -10 -32 -10 -3 0 -18 -9 -34 -21 -37 -26 -61 -72 -61 -117 0
-25 -7 -41 -23 -54 -26 -20 -35 -45 -25 -73 4 -12 1 -25 -7 -34 -10 -9 -13
-26 -9 -50 3 -20 9 -64 14 -98 15 -97 140 -352 180 -368 13 -5 5 -13 -32 -36
-130 -81 -686 -363 -886 -448 -69 -30 -144 -56 -167 -59 -24 -2 -43 -8 -43
-13 0 -7 21 -6 84 7 95 20 730 331 978 480 81 48 91 51 125 43 21 -5 63 -9 93
-9 l55 0 -52 -30 c-28 -16 -55 -34 -58 -40 -4 -6 23 8 60 30 51 31 81 42 124
46 93 9 138 38 197 126 28 43 63 106 76 140 14 35 36 88 49 118 21 50 23 71
19 163 0 12 0 36 0 52 1 21 -7 38 -27 55 -19 17 -28 36 -29 58 -2 42 -17 59
-65 74 -29 8 -39 17 -39 31 0 11 -7 28 -16 38 -15 16 -14 20 6 41 11 13 48 62
81 110 33 48 64 90 69 93 17 10 10 39 -15 68 -13 15 -26 27 -28 27 -3 0 -25
-33 -50 -72 -54 -86 -103 -151 -92 -123 4 11 27 76 50 145 36 105 41 127 30
140 -8 8 -14 20 -15 25 -2 15 -10 20 -10 7 0 -7 -10 -11 -22 -9 -28 2 -54 -46
-83 -153 -11 -38 -23 -70 -27 -70 -4 0 -8 4 -8 10 0 14 -46 42 -83 50 -22 4
-46 1 -77 -12 -24 -11 -46 -16 -47 -11 -2 4 -10 19 -18 33 -47 80 -55 109 -55
191 -1 46 2 96 5 112 6 30 -9 37 -23 10z m452 -237 c-4 -11 -13 -35 -21 -55
l-15 -36 -20 38 c-16 32 -17 44 -8 72 l11 33 29 -16 c22 -13 28 -22 24 -36z
m-44 -112 c0 -5 -6 -19 -14 -29 -13 -18 -14 -17 -31 8 -12 19 -15 35 -10 58
l7 32 24 -29 c13 -16 23 -34 24 -40z m150 -14 c0 -3 -11 -17 -24 -29 -20 -19
-24 -20 -29 -7 -4 9 -11 16 -16 16 -7 0 -7 -9 0 -26 7 -21 6 -31 -7 -45 -22
-24 -30 -24 -37 0 -5 20 26 81 41 81 4 0 13 14 20 32 l12 32 20 -24 c11 -13
20 -26 20 -30z m-311 -6 c25 -20 31 -34 31 -64 0 -51 -21 -74 -106 -114 -69
-33 -71 -33 -103 -17 -37 20 -71 66 -71 98 0 29 48 82 79 88 14 3 32 11 40 20
25 25 94 19 130 -11z m109 -24 c18 -23 20 -34 12 -55 -13 -34 -28 -32 -44 7
-10 23 -11 38 -3 55 5 13 11 23 12 23 1 0 11 -13 23 -30z m71 -132 c-6 -11
-16 -17 -22 -15 -19 6 -20 36 -1 65 l18 27 7 -29 c5 -17 4 -37 -2 -48z m-93
-6 c-9 -15 -15 -22 -16 -15 0 6 -9 15 -20 18 -19 6 -20 8 -4 34 16 28 17 28
36 9 17 -17 17 -21 4 -46z m45 -45 c-5 -5 -16 -7 -24 -5 -14 3 -14 7 0 38 l15
35 9 -30 c5 -16 5 -33 0 -38z m-86 33 c12 -19 -6 -48 -33 -57 -24 -8 -49 -9
-127 -4 -13 1 4 14 45 36 66 35 104 43 115 25z m-246 -48 c-23 -9 -59 9 -59
28 0 20 1 20 35 -2 19 -13 30 -25 24 -26z m338 -34 c40 -33 -4 -74 -86 -83
-68 -6 -74 -11 -68 -51 5 -32 4 -34 -22 -34 -19 0 -34 8 -44 24 -23 35 -65 39
-95 9 -30 -30 -22 -43 9 -14 30 28 44 27 76 -9 14 -16 34 -30 43 -30 26 0 53
25 56 51 1 13 3 27 3 30 1 3 18 6 39 7 55 2 111 13 117 22 8 13 68 -7 83 -27
33 -45 -9 -85 -109 -107 -77 -17 -252 -26 -304 -16 -16 3 -45 3 -63 -1 -33 -7
-54 4 -27 15 8 3 15 12 15 20 0 8 6 17 13 19 7 4 6 6 -4 6 -9 1 -19 -9 -22
-21 -6 -20 -7 -20 -31 -5 -14 10 -34 17 -45 17 -38 0 -51 11 -51 45 0 82 79
121 260 128 65 2 116 9 135 18 32 16 96 9 122 -13z m-439 -212 c33 -11 27 -26
-11 -26 -19 0 -55 -6 -80 -14 -54 -16 -59 -8 -19 26 28 23 65 28 110 14z m606
-8 c21 -30 20 -60 -4 -91 -20 -25 -20 -25 0 -20 17 5 20 0 20 -26 0 -41 -61
-111 -91 -104 -11 3 -28 -2 -39 -12 -14 -12 -23 -14 -36 -7 -13 7 -27 6 -47
-5 -27 -14 -31 -13 -53 8 l-24 23 -28 -21 c-26 -19 -30 -19 -56 -6 -25 13 -30
13 -47 -3 -19 -17 -21 -17 -53 0 -27 14 -37 15 -60 5 -22 -11 -29 -10 -43 3
-13 13 -20 14 -40 5 -22 -10 -28 -8 -44 11 -11 14 -27 22 -41 20 -13 -2 -24 2
-26 7 -3 12 -4 12 249 19 198 5 316 20 358 47 12 8 9 9 -14 4 -16 -4 -133 -8
-260 -10 -126 -2 -262 -6 -302 -10 l-71 -6 -7 30 c-8 37 8 69 43 82 15 6 133
12 267 14 242 4 302 12 371 48 41 21 61 20 78 -5z m-692 -253 c12 5 19 -9 32
-62 16 -64 65 -187 72 -180 2 1 -10 52 -25 113 l-28 111 22 -5 c19 -3 24 -12
29 -63 4 -32 13 -76 21 -96 14 -36 14 -33 9 62 -4 79 -3 97 7 88 8 -8 18 -9
31 -2 16 9 18 5 19 -28 1 -57 23 -173 33 -173 4 0 -3 160 -8 183 -5 20 14 23
32 5 10 -10 17 -10 32 0 19 11 19 9 18 -61 -3 -191 12 -191 29 0 5 66 7 71 24
63 11 -7 20 -7 24 0 3 5 11 10 16 10 12 0 2 -89 -25 -225 -12 -58 52 127 69
199 4 20 9 26 17 18 6 -6 17 -8 24 -5 8 3 14 0 14 -7 0 -21 -39 -165 -55 -204
-9 -21 -12 -35 -7 -32 14 8 104 215 106 241 1 17 4 21 13 13 8 -6 18 -6 31 1
18 9 19 8 15 -12 -3 -12 -25 -67 -49 -121 -24 -55 -42 -101 -40 -103 10 -11
89 140 111 212 7 22 19 41 28 43 15 3 14 -2 -2 -50 -33 -95 -101 -225 -126
-242 -25 -17 -95 -30 -150 -29 -16 0 -65 1 -108 2 -43 0 -76 5 -73 10 3 4 -5
6 -18 4 -13 -3 -39 2 -58 11 -30 15 -37 25 -52 79 -10 34 -33 97 -52 140 -31
71 -47 133 -26 99 5 -7 16 -10 24 -7z"/>
<path d="M2006 2610 c2 -46 3 -47 21 -54 11 -5 22 -1 29 9 18 25 -2 75 -29 75
-18 0 -22 -6 -21 -30z m44 -22 c0 -10 -4 -18 -10 -18 -5 0 -10 15 -10 33 0 24
3 28 10 17 5 -8 10 -23 10 -32z"/>
<path d="M1705 2570 c-4 -7 -2 -17 4 -23 8 -8 11 -7 11 4 0 12 2 12 11 -1 8
-12 10 -12 7 4 -4 23 -23 32 -33 16z"/>
<path d="M1050 3369 c0 -5 5 -7 10 -4 6 3 10 8 10 11 0 2 -4 4 -10 4 -5 0 -10
-5 -10 -11z"/>
<path d="M2620 3370 c0 -5 5 -10 11 -10 5 0 7 5 4 10 -3 6 -8 10 -11 10 -2 0
-4 -4 -4 -10z"/>
<path d="M2850 3369 c0 -5 5 -7 10 -4 6 3 10 8 10 11 0 2 -4 4 -10 4 -5 0 -10
-5 -10 -11z"/>
<path d="M2305 3350 c-3 -5 -1 -10 4 -10 6 0 11 5 11 10 0 6 -2 10 -4 10 -3 0
-8 -4 -11 -10z"/>
<path d="M3742 3350 c-20 -9 -100 -60 -127 -82 -36 -30 -172 -131 -201 -148
-19 -12 -34 -26 -34 -31 0 -13 33 9 193 128 76 57 151 110 167 118 17 9 30 18
30 20 0 6 1 6 -28 -5z"/>
<path d="M2070 3339 c0 -5 5 -7 10 -4 6 3 10 8 10 11 0 2 -4 4 -10 4 -5 0 -10
-5 -10 -11z"/>
<path d="M2570 3309 c0 -5 5 -7 10 -4 6 3 10 8 10 11 0 2 -4 4 -10 4 -5 0 -10
-5 -10 -11z"/>
<path d="M1015 3300 c3 -5 8 -10 11 -10 2 0 4 5 4 10 0 6 -5 10 -11 10 -5 0
-7 -4 -4 -10z"/>
<path d="M2245 3300 c-3 -5 -1 -10 4 -10 6 0 11 5 11 10 0 6 -2 10 -4 10 -3 0
-8 -4 -11 -10z"/>
<path d="M2055 3270 c3 -5 8 -10 11 -10 2 0 4 5 4 10 0 6 -5 10 -11 10 -5 0
-7 -4 -4 -10z"/>
<path d="M2740 3270 c0 -5 5 -10 11 -10 5 0 7 5 4 10 -3 6 -8 10 -11 10 -2 0
-4 -4 -4 -10z"/>
<path d="M2185 3260 c-3 -5 -1 -10 4 -10 6 0 11 5 11 10 0 6 -2 10 -4 10 -3 0
-8 -4 -11 -10z"/>
<path d="M2525 3250 c-3 -5 -1 -10 4 -10 6 0 11 5 11 10 0 6 -2 10 -4 10 -3 0
-8 -4 -11 -10z"/>
<path d="M985 3240 c-3 -5 -1 -10 4 -10 6 0 11 5 11 10 0 6 -2 10 -4 10 -3 0
-8 -4 -11 -10z"/>
<path d="M2688 3213 c7 -3 16 -2 19 1 4 3 -2 6 -13 5 -11 0 -14 -3 -6 -6z"/>
<path d="M4100 3189 c0 -5 5 -7 10 -4 6 3 10 8 10 11 0 2 -4 4 -10 4 -5 0 -10
-5 -10 -11z"/>
<path d="M955 3170 c-3 -5 -1 -10 4 -10 6 0 11 5 11 10 0 6 -2 10 -4 10 -3 0
-8 -4 -11 -10z"/>
<path d="M4045 3140 c3 -5 8 -10 11 -10 2 0 4 5 4 10 0 6 -5 10 -11 10 -5 0
-7 -4 -4 -10z"/>
<path d="M2455 3120 c-3 -5 -1 -10 4 -10 6 0 11 5 11 10 0 6 -2 10 -4 10 -3 0
-8 -4 -11 -10z"/>
<path d="M2575 3120 c-3 -5 -1 -10 4 -10 6 0 11 5 11 10 0 6 -2 10 -4 10 -3 0
-8 -4 -11 -10z"/>
<path d="M931 3094 c0 -11 3 -14 6 -6 3 7 2 16 -1 19 -3 4 -6 -2 -5 -13z"/>
<path d="M3991 3084 c0 -11 3 -14 6 -6 3 7 2 16 -1 19 -3 4 -6 -2 -5 -13z"/>
<path d="M2510 3069 c0 -5 5 -7 10 -4 6 3 10 8 10 11 0 2 -4 4 -10 4 -5 0 -10
-5 -10 -11z"/>
<path d="M3311 3057 c-6 -6 -11 -17 -11 -24 0 -11 6 -10 30 2 17 9 30 17 30
19 0 10 -40 12 -49 3z"/>
<path d="M2448 3043 c7 -3 16 -2 19 1 4 3 -2 6 -13 5 -11 0 -14 -3 -6 -6z"/>
<path d="M3910 3032 c-30 -21 -70 -59 -70 -67 0 -7 37 19 85 59 34 28 23 34
-15 8z"/>
<path d="M715 3023 c-9 -21 -12 -29 -14 -43 0 -5 -19 -10 -40 -10 -48 0 -71
-20 -72 -63 0 -18 -2 -41 -4 -52 -2 -11 -13 -101 -25 -200 -11 -99 -23 -193
-25 -210 -2 -16 -7 -57 -10 -90 -4 -33 -8 -71 -10 -85 -2 -14 -11 -91 -21
-172 l-17 -147 -86 -80 c-300 -276 -383 -399 -377 -559 6 -168 128 -248 361
-235 185 9 355 53 683 175 153 57 77 38 -147 -37 -123 -41 -241 -80 -264 -86
-87 -23 -205 -36 -321 -34 -118 1 -122 2 -186 37 -52 28 -70 45 -87 79 -29 57
-34 100 -21 168 22 121 85 208 303 419 130 125 161 151 180 146 27 -7 55 18
55 49 0 11 10 32 23 46 14 16 15 20 4 11 -18 -13 -18 -11 -12 56 3 38 8 76 10
84 2 8 7 44 10 80 4 36 8 76 10 90 2 14 6 50 10 80 3 30 10 89 15 130 5 41 12
98 15 125 3 28 8 61 11 75 6 24 6 24 18 -10 65 -182 313 -789 327 -802 12 -10
34 -16 61 -15 l41 2 3 50 c2 28 8 82 13 120 6 39 13 88 15 110 3 22 10 76 15
120 6 44 13 105 16 135 3 30 8 66 10 80 2 14 6 52 10 85 4 33 8 74 10 90 31
230 30 235 -14 235 -16 0 -33 -6 -39 -12 -5 -7 -15 -56 -21 -108 -7 -52 -14
-111 -16 -130 -3 -19 -7 -53 -10 -75 -2 -22 -6 -56 -9 -75 -2 -19 -12 -100
-21 -180 -10 -80 -18 -154 -20 -165 -1 -11 -3 -36 -4 -55 -1 -21 -5 -30 -10
-25 -6 6 -80 187 -166 403 -152 382 -157 395 -146 435 10 43 0 73 -14 40z"/>
<path d="M907 3033 c-4 -3 -7 -11 -7 -17 0 -6 5 -5 12 2 6 6 9 14 7 17 -3 3
-9 2 -12 -2z"/>
<path d="M3197 2963 c-31 -26 -55 -48 -53 -51 6 -5 97 60 116 83 23 28 -5 14
-63 -32z"/>
<path d="M3079 2883 c10 -4 5 -9 -15 -17 -15 -7 -24 -15 -18 -18 13 -8 56 13
62 30 2 7 -5 12 -20 11 -14 0 -17 -3 -9 -6z"/>
<path d="M3622 2880 c-60 -14 -120 -41 -126 -56 -8 -21 11 -64 28 -64 9 0 39
9 68 21 98 39 225 23 229 -29 3 -33 1 -94 -3 -98 -2 -2 -29 -6 -59 -9 -79 -8
-194 -41 -238 -69 -84 -54 -124 -133 -111 -220 22 -148 240 -167 344 -30 l34
44 4 -60 c2 -33 9 -64 14 -69 5 -6 25 -6 44 -2 l34 7 2 134 c1 74 4 146 7 160
17 69 32 209 26 240 -9 42 -54 85 -106 99 -43 12 -142 13 -191 1z m178 -320
c0 -24 -35 -109 -62 -152 -37 -59 -82 -88 -137 -88 -83 0 -118 75 -73 153 28
47 143 93 240 96 17 1 32 -3 32 -9z"/>
<path d="M2398 2853 c-24 -6 -27 -22 -17 -83 5 -30 11 -77 14 -105 3 -27 8
-57 10 -65 2 -8 6 -40 10 -70 3 -30 7 -64 9 -75 2 -11 7 -47 11 -80 4 -32 8
-66 10 -75 1 -8 6 -41 9 -73 4 -31 14 -64 22 -72 35 -35 118 -5 196 70 135
129 237 365 239 553 1 60 -13 84 -47 78 -38 -7 -41 -12 -48 -83 -19 -191 -91
-369 -187 -465 -31 -32 -62 -58 -67 -58 -5 0 -13 26 -17 58 -9 74 -13 108 -30
217 -7 50 -16 115 -20 145 -10 87 -24 163 -33 172 -11 11 -42 16 -64 11z"/>
<path d="M2977 2810 c-21 -25 -5 -35 17 -11 10 11 13 21 8 24 -4 4 -16 -3 -25
-13z"/>
<path d="M670 2140 c0 -12 -9 -24 -22 -30 l-23 -9 23 0 c19 -1 22 -7 22 -38 1
-34 2 -36 14 -20 11 14 15 15 20 5 3 -7 4 -2 2 11 -3 13 3 35 12 49 16 25 16
25 -6 20 -15 -4 -22 -2 -22 7 0 8 -4 17 -10 20 -5 3 -10 -3 -10 -15z"/>
<path d="M2430 2005 c-30 -19 -60 -39 -67 -45 -7 -5 -16 -10 -21 -10 -5 0 -15
-7 -22 -15 -7 -8 -10 -15 -6 -15 10 0 155 92 167 106 17 21 9 17 -51 -21z"/>
<path d="M1420 2009 c0 -5 5 -7 10 -4 6 3 10 8 10 11 0 2 -4 4 -10 4 -5 0 -10
-5 -10 -11z"/>
<path d="M4064 1933 c-74 -163 -90 -192 -178 -323 -147 -220 -362 -420 -589
-546 -190 -106 -433 -185 -647 -211 -82 -10 -325 -10 -410 0 -264 30 -585 150
-787 294 -35 25 -63 41 -63 37 0 -9 19 -23 115 -88 117 -78 196 -118 325 -164
155 -55 256 -83 357 -98 26 -3 57 -8 67 -10 10 -2 85 -4 165 -5 130 -1 185 2
270 16 13 2 45 7 70 11 25 3 78 15 116 26 39 11 85 23 103 28 72 18 227 83
317 134 251 140 477 351 630 587 83 128 203 389 179 389 -3 0 -21 -35 -40 -77z"/>
<path d="M1355 1970 c-3 -5 -1 -10 4 -10 6 0 11 5 11 10 0 6 -2 10 -4 10 -3 0
-8 -4 -11 -10z"/>
<path d="M2790 1970 c0 -5 5 -10 11 -10 5 0 7 5 4 10 -3 6 -8 10 -11 10 -2 0
-4 -4 -4 -10z"/>
<path d="M620 1940 c0 -5 5 -10 10 -10 6 0 10 5 10 10 0 6 -4 10 -10 10 -5 0
-10 -4 -10 -10z"/>
<path d="M1295 1930 c-3 -5 -1 -10 4 -10 6 0 11 5 11 10 0 6 -2 10 -4 10 -3 0
-8 -4 -11 -10z"/>
<path d="M2055 1891 c-44 -22 -75 -40 -69 -40 6 -1 47 17 90 39 43 22 74 40
69 40 -6 0 -47 -18 -90 -39z"/>
<path d="M3330 1920 c0 -5 5 -10 10 -10 6 0 10 5 10 10 0 6 -4 10 -10 10 -5 0
-10 -4 -10 -10z"/>
<path d="M570 1909 c0 -4 7 -9 15 -13 9 -3 15 0 15 8 0 7 -7 13 -15 13 -8 0
-15 -4 -15 -8z"/>
<path d="M820 1898 c0 -57 66 -203 109 -242 32 -29 37 -12 8 26 -24 31 -58
102 -87 178 -16 43 -30 60 -30 38z"/>
<path d="M2205 1864 c-44 -26 -134 -77 -200 -114 -66 -37 -156 -88 -201 -112
-138 -79 -364 -194 -478 -244 -59 -27 -104 -50 -99 -51 12 -4 187 73 338 150
196 99 725 401 725 413 0 7 -2 5 -85 -42z"/>
<path d="M2771 1894 c0 -11 3 -14 6 -6 3 7 2 16 -1 19 -3 4 -6 -2 -5 -13z"/>
<path d="M1230 1890 c0 -5 5 -10 11 -10 5 0 7 5 4 10 -3 6 -8 10 -11 10 -2 0
-4 -4 -4 -10z"/>
<path d="M3265 1890 c-3 -5 -1 -10 4 -10 6 0 11 5 11 10 0 6 -2 10 -4 10 -3 0
-8 -4 -11 -10z"/>
<path d="M1060 1879 c0 -5 5 -7 10 -4 6 3 10 8 10 11 0 2 -4 4 -10 4 -5 0 -10
-5 -10 -11z"/>
<path d="M1705 1869 c-16 -10 -40 -24 -52 -30 -13 -7 -23 -17 -23 -22 0 -5 10
-2 23 7 12 9 37 24 55 33 17 9 32 20 32 25 0 10 1 10 -35 -13z"/>
<path d="M526 1863 c-11 -11 -6 -23 9 -23 8 0 15 4 15 9 0 13 -16 22 -24 14z"/>
<path d="M1165 1850 c-3 -5 -1 -10 4 -10 6 0 11 5 11 10 0 6 -2 10 -4 10 -3 0
-8 -4 -11 -10z"/>
<path d="M3190 1850 c0 -5 5 -10 10 -10 6 0 10 5 10 10 0 6 -4 10 -10 10 -5 0
-10 -4 -10 -10z"/>
<path d="M3390 1850 c0 -5 5 -10 11 -10 5 0 7 5 4 10 -3 6 -8 10 -11 10 -2 0
-4 -4 -4 -10z"/>
<path d="M2727 1843 c-4 -3 -7 -11 -7 -17 0 -6 5 -5 12 2 6 6 9 14 7 17 -3 3
-9 2 -12 -2z"/>
<path d="M1904 1816 c-28 -13 -55 -29 -58 -35 -4 -6 20 2 53 19 34 17 61 33
61 36 0 6 -1 6 -56 -20z"/>
<path d="M1041 1814 c0 -11 3 -14 6 -6 3 7 2 16 -1 19 -3 4 -6 -2 -5 -13z"/>
<path d="M3130 1809 c0 -5 5 -7 10 -4 6 3 10 8 10 11 0 2 -4 4 -10 4 -5 0 -10
-5 -10 -11z"/>
<path d="M450 1785 c-10 -13 -9 -15 9 -15 11 0 21 4 21 9 0 18 -18 21 -30 6z"/>
<path d="M2665 1780 c3 -5 8 -10 11 -10 2 0 4 5 4 10 0 6 -5 10 -11 10 -5 0
-7 -4 -4 -10z"/>
<path d="M3065 1780 c-3 -5 -1 -10 4 -10 6 0 11 5 11 10 0 6 -2 10 -4 10 -3 0
-8 -4 -11 -10z"/>
<path d="M3365 1780 c-3 -5 -1 -10 4 -10 6 0 11 5 11 10 0 6 -2 10 -4 10 -3 0
-8 -4 -11 -10z"/>
<path d="M3850 1779 c0 -5 5 -7 10 -4 6 3 10 8 10 11 0 2 -4 4 -10 4 -5 0 -10
-5 -10 -11z"/>
<path d="M1685 1701 c-160 -85 -241 -131 -231 -131 7 0 343 176 355 186 20 17
-32 -6 -124 -55z"/>
<path d="M3000 1740 c0 -5 5 -10 11 -10 5 0 7 5 4 10 -3 6 -8 10 -11 10 -2 0
-4 -4 -4 -10z"/>
<path d="M2608 1733 c7 -3 16 -2 19 1 4 3 -2 6 -13 5 -11 0 -14 -3 -6 -6z"/>
<path d="M3320 1709 c0 -5 5 -7 10 -4 6 3 10 8 10 11 0 2 -4 4 -10 4 -5 0 -10
-5 -10 -11z"/>
<path d="M3810 1709 c0 -5 5 -7 10 -4 6 3 10 8 10 11 0 2 -4 4 -10 4 -5 0 -10
-5 -10 -11z"/>
<path d="M356 1685 c-18 -27 -21 -45 -7 -45 16 0 41 31 41 51 0 26 -14 24 -34
-6z"/>
<path d="M2555 1690 c-3 -5 -1 -10 4 -10 6 0 11 5 11 10 0 6 -2 10 -4 10 -3 0
-8 -4 -11 -10z"/>
<path d="M2938 1693 c7 -3 16 -2 19 1 4 3 -2 6 -13 5 -11 0 -14 -3 -6 -6z"/>
<path d="M3275 1660 c-3 -5 -1 -10 4 -10 6 0 11 5 11 10 0 6 -2 10 -4 10 -3 0
-8 -4 -11 -10z"/>
<path d="M2870 1650 c0 -5 5 -10 10 -10 6 0 10 5 10 10 0 6 -4 10 -10 10 -5 0
-10 -4 -10 -10z"/>
<path d="M3770 1649 c0 -5 5 -7 10 -4 6 3 10 8 10 11 0 2 -4 4 -10 4 -5 0 -10
-5 -10 -11z"/>
<path d="M2495 1640 c-3 -5 -1 -10 4 -10 6 0 11 5 11 10 0 6 -2 10 -4 10 -3 0
-8 -4 -11 -10z"/>
<path d="M311 1581 c-12 -22 -21 -55 -20 -73 1 -32 1 -31 13 12 7 25 18 56 25
68 7 13 10 26 8 29 -3 3 -15 -13 -26 -36z"/>
<path d="M2815 1610 c-3 -5 -1 -10 4 -10 6 0 11 5 11 10 0 6 -2 10 -4 10 -3 0
-8 -4 -11 -10z"/>
<path d="M3225 1600 c-3 -5 -1 -10 4 -10 6 0 11 5 11 10 0 6 -2 10 -4 10 -3 0
-8 -4 -11 -10z"/>
<path d="M3720 1589 c0 -5 5 -7 10 -4 6 3 10 8 10 11 0 2 -4 4 -10 4 -5 0 -10
-5 -10 -11z"/>
<path d="M2440 1579 c0 -5 5 -7 10 -4 6 3 10 8 10 11 0 2 -4 4 -10 4 -5 0 -10
-5 -10 -11z"/>
<path d="M2755 1560 c-3 -5 -1 -10 4 -10 6 0 11 5 11 10 0 6 -2 10 -4 10 -3 0
-8 -4 -11 -10z"/>
<path d="M1370 1529 c-30 -16 -59 -35 -65 -41 -8 -8 118 56 134 69 18 14 -24
-3 -69 -28z"/>
<path d="M3170 1539 c0 -5 5 -7 10 -4 6 3 10 8 10 11 0 2 -4 4 -10 4 -5 0 -10
-5 -10 -11z"/>
<path d="M3670 1539 c0 -5 5 -7 10 -4 6 3 10 8 10 11 0 2 -4 4 -10 4 -5 0 -10
-5 -10 -11z"/>
<path d="M2385 1530 c-3 -5 -1 -10 4 -10 6 0 11 5 11 10 0 6 -2 10 -4 10 -3 0
-8 -4 -11 -10z"/>
<path d="M2700 1509 c0 -5 5 -7 10 -4 6 3 10 8 10 11 0 2 -4 4 -10 4 -5 0 -10
-5 -10 -11z"/>
<path d="M3120 1489 c0 -5 5 -7 10 -4 6 3 10 8 10 11 0 2 -4 4 -10 4 -5 0 -10
-5 -10 -11z"/>
<path d="M3615 1480 c4 -6 11 -8 16 -5 14 9 11 15 -7 15 -8 0 -12 -5 -9 -10z"/>
<path d="M2335 1470 c3 -5 8 -10 11 -10 2 0 4 5 4 10 0 6 -5 10 -11 10 -5 0
-7 -4 -4 -10z"/>
<path d="M2645 1460 c-3 -5 -1 -10 4 -10 6 0 11 5 11 10 0 6 -2 10 -4 10 -3 0
-8 -4 -11 -10z"/>
<path d="M290 1435 c0 -12 53 -64 68 -66 37 -5 60 -4 56 3 -3 4 -17 8 -31 8
-15 0 -38 13 -59 34 -19 19 -34 28 -34 21z"/>
<path d="M3070 1429 c0 -5 5 -7 10 -4 6 3 10 8 10 11 0 2 -4 4 -10 4 -5 0 -10
-5 -10 -11z"/>
<path d="M3560 1429 c0 -5 5 -7 10 -4 6 3 10 8 10 11 0 2 -4 4 -10 4 -5 0 -10
-5 -10 -11z"/>
<path d="M2285 1420 c-3 -5 -1 -10 4 -10 6 0 11 5 11 10 0 6 -2 10 -4 10 -3 0
-8 -4 -11 -10z"/>
<path d="M2585 1410 c-3 -5 -1 -10 4 -10 6 0 11 5 11 10 0 6 -2 10 -4 10 -3 0
-8 -4 -11 -10z"/>
<path d="M3500 1390 c0 -5 5 -10 11 -10 5 0 7 5 4 10 -3 6 -8 10 -11 10 -2 0
-4 -4 -4 -10z"/>
<path d="M2525 1370 c-3 -5 -1 -10 4 -10 6 0 11 5 11 10 0 6 -2 10 -4 10 -3 0
-8 -4 -11 -10z"/>
<path d="M3025 1370 c-3 -5 -1 -10 4 -10 6 0 11 5 11 10 0 6 -2 10 -4 10 -3 0
-8 -4 -11 -10z"/>
<path d="M2250 1350 c0 -5 5 -10 10 -10 6 0 10 5 10 10 0 6 -4 10 -10 10 -5 0
-10 -4 -10 -10z"/>
<path d="M2455 1330 c-3 -5 -1 -10 4 -10 6 0 11 5 11 10 0 6 -2 10 -4 10 -3 0
-8 -4 -11 -10z"/>
<path d="M2385 1310 c-3 -5 -1 -10 4 -10 6 0 11 5 11 10 0 6 -2 10 -4 10 -3 0
-8 -4 -11 -10z"/>
<path d="M3375 1310 c-3 -5 -1 -10 4 -10 6 0 11 5 11 10 0 6 -2 10 -4 10 -3 0
-8 -4 -11 -10z"/>
<path d="M2308 1303 c7 -3 16 -2 19 1 4 3 -2 6 -13 5 -11 0 -14 -3 -6 -6z"/>
<path d="M2995 1300 c3 -5 8 -10 11 -10 2 0 4 5 4 10 0 6 -5 10 -11 10 -5 0
-7 -4 -4 -10z"/>
<path d="M3016 1241 c-3 -5 1 -11 9 -14 9 -4 12 -1 8 9 -6 16 -10 17 -17 5z"/>
<path d="M3230 1239 c0 -5 5 -7 10 -4 6 3 10 8 10 11 0 2 -4 4 -10 4 -5 0 -10
-5 -10 -11z"/>
<path d="M3088 1203 c7 -3 16 -2 19 1 4 3 -2 6 -13 5 -11 0 -14 -3 -6 -6z"/>
</g>
</svg>
